<?xml version="1.0" encoding="UTF-8" standalone="no"?>
<svg
   xmlns:dc="http://purl.org/dc/elements/1.1/"
   xmlns:cc="http://creativecommons.org/ns#"
   xmlns:rdf="http://www.w3.org/1999/02/22-rdf-syntax-ns#"
   xmlns:svg="http://www.w3.org/2000/svg"
   xmlns="http://www.w3.org/2000/svg"
   xmlns:sodipodi="http://sodipodi.sourceforge.net/DTD/sodipodi-0.dtd"
   xmlns:inkscape="http://www.inkscape.org/namespaces/inkscape"
   id="SvgjsSvg1006"
   width="288"
   height="288"
   version="1.1"
   sodipodi:docname="icon.svg"
   inkscape:version="1.0.2 (e86c870879, 2021-01-15, custom)">
  <metadata
     id="metadata13">
    <rdf:RDF>
      <cc:Work
         rdf:about="">
        <dc:format>image/svg+xml</dc:format>
        <dc:type
           rdf:resource="http://purl.org/dc/dcmitype/StillImage" />
        <dc:title></dc:title>
      </cc:Work>
    </rdf:RDF>
  </metadata>
  <sodipodi:namedview
     pagecolor="#ffffff"
     bordercolor="#666666"
     borderopacity="1"
     objecttolerance="10"
     gridtolerance="10"
     guidetolerance="10"
     inkscape:pageopacity="0"
     inkscape:pageshadow="2"
     inkscape:window-width="2560"
     inkscape:window-height="696"
     id="namedview11"
     showgrid="false"
     inkscape:zoom="2.0599395"
     inkscape:cx="13.717435"
     inkscape:cy="225.03029"
     inkscape:window-x="0"
     inkscape:window-y="0"
     inkscape:window-maximized="0"
     inkscape:current-layer="layer2" />
  <defs
     id="SvgjsDefs1007" />
  <g
     inkscape:groupmode="layer"
     id="layer2"
     inkscape:label="background">
    <rect
       style="fill:#cccccc;stroke-width:0.998678"
       id="rect23"
       width="288.06842"
       height="288.11273"
       x="0.015325891"
       y="-0.024208311" />
  </g>
  <g
     inkscape:groupmode="layer"
     id="layer1"
     inkscape:label="Logo"
     sodipodi:insensitive="true">
    <g
       id="SvgjsG1008">
      <svg
         fill="#e0ffff"
         enable-background="new 0 0 229 229"
         viewBox="0 0 229 229"
         width="288"
         height="288"
         version="1.1"
         id="svg7">
        <path
           fill-rule="evenodd"
           stroke="#e6e6fa"
           stroke-miterlimit="10"
           d="m 132.5,191.1 h 4.1 -4.1 v -7.7 c 0.1,0 0.1,0 0.1,0 0.1,0 0.3,0 0.4,0 1.9,-0.1 3.5,-0.9 4.8,-2.2 1.5,-1.4 2.2,-3.2 2.2,-5.3 0,-2.1 -0.7,-3.8 -2.2,-5.3 -1.3,-1.4 -2.9,-2.1 -4.8,-2.3 -0.1,0 -0.2,0 -0.4,0 0,0 -0.1,0 -0.1,0 v -7.4 h 4.1 -4.1 v -7.6 c 0.1,0 0.1,0 0.1,0 0.1,0 0.3,0 0.4,0 1.9,-0.1 3.5,-0.9 4.8,-2.2 1.5,-1.5 2.2,-3.2 2.2,-5.3 0,-2.1 -0.7,-3.8 -2.2,-5.3 -1.3,-1.4 -2.9,-2.1 -4.8,-2.3 -0.1,0 -0.2,0 -0.4,0 0,0 -0.1,0 -0.1,0 v -7.4 -7.8 c 0.1,0 0.1,0 0.1,0 0.1,0 0.3,0 0.4,0 1.9,-0.2 3.5,-0.9 4.8,-2.2 1.5,-1.5 2.2,-3.3 2.2,-5.4 0,-2.1 -0.7,-3.8 -2.2,-5.3 -1.3,-1.4 -2.9,-2.1 -4.8,-2.2 -0.1,0 -0.2,0 -0.4,0 0,0 -0.1,0 -0.1,0 v -7.4 h 4.1 -4.1 v -7.7 c 0.1,0 0.1,0 0.1,0 0.1,0 0.3,0 0.4,0 1.9,-0.1 3.5,-0.9 4.8,-2.2 1.5,-1.5 2.2,-3.3 2.2,-5.4 0,-2.1 -0.7,-3.8 -2.2,-5.3 -1.3,-1.4 -2.9,-2.1 -4.8,-2.2 -0.1,0 -0.2,0 -0.4,0 0,0 -0.1,0 -0.1,0 v -7.5 h 4.1 -4.1 v -7.6 c 0.1,0 0.1,0 0.1,0 0.1,0 0.3,0 0.4,0 1.9,-0.1 3.5,-0.9 4.8,-2.2 1.5,-1.4 2.2,-3.2 2.2,-5.3 0,-2.1 -0.7,-3.8 -2.2,-5.3 -1.3,-1.4 -2.9,-2.1 -4.8,-2.3 -0.1,0 -0.2,0 -0.4,0 0,0 -0.1,0 -0.1,0 V 40 h 4.1 -4.1 v -7.7 h 14.3 c 7.9,0.1 15.6,1.7 22.9,4.9 6.9,3 13.1,7.3 18.4,12.7 5.4,5.4 9.5,11.6 12.5,18.6 2.8,6.8 4.3,13.9 4.5,21.3 v 3 c -0.2,7.5 -1.7,14.6 -4.5,21.4 -3,7.1 -7.1,13.4 -12.5,18.7 -5.3,5.4 -11.5,9.6 -18.4,12.5 -7.3,3.1 -14.9,4.7 -22.9,4.8 h -1.2 l 48.6,48.4 h -60.4 c -0.2,0 -0.5,0 -0.7,0 -0.1,0 -0.2,0 -0.4,0 0,0 -0.1,0 -0.1,0 v -7.5 z"
           clip-rule="evenodd"
           fill="#e6e6fa"
           class="color000 svgShape colorStroke000 svgStroke"
           id="path3" />
        <path
           fill-rule="evenodd"
           stroke="#e6e6fa"
           stroke-linecap="round"
           stroke-linejoin="round"
           stroke-miterlimit="3"
           stroke-width="17"
           d="m 132.5,40 h 4.1 m -4.1,30.2 h 4.1 M 104.1,40 h 28.3 m -54.3,0 h 4.5 m -37.4,90.6 h 5.3 m 11.7,-30.1 h 31.3 m 39,0 h 4.1 m -4.1,60.3 h 4.1 M 117,100.5 h 15.5 m -58.6,30.1 h 58.5 M 96.6,70.2 h 35.9 m 0,120.9 h 4.1 m -14,-30.3 h 9.8 m -97.7,0 h 43.4 m -16.2,30.3 h 5.6 m 19.7,0 h 45.3 M 27.5,40 h 20"
           clip-rule="evenodd"
           fill="#e6e6fa"
           class="color000 svgShape colorStroke000 svgStroke"
           id="path5" />
      </svg>
    </g>
  </g>
</svg>
